<svg width="16" height="16" viewBox="0 0 16 16" fill="none" xmlns="http://www.w3.org/2000/svg">
<path d="M6 2H2.66667C2.29848 2 2 2.29848 2 2.66667V7.33333C2 7.70152 2.29848 8 2.66667 8H6C6.36819 8 6.66667 7.70152 6.66667 7.33333V2.66667C6.66667 2.29848 6.36819 2 6 2Z" stroke="#E2E8F0" stroke-opacity="0.8" stroke-width="1.33333" stroke-linecap="round" stroke-linejoin="round"/>
<path d="M13.3333 2H9.99992C9.63173 2 9.33325 2.29848 9.33325 2.66667V4.66667C9.33325 5.03486 9.63173 5.33333 9.99992 5.33333H13.3333C13.7014 5.33333 13.9999 5.03486 13.9999 4.66667V2.66667C13.9999 2.29848 13.7014 2 13.3333 2Z" stroke="#E2E8F0" stroke-opacity="0.8" stroke-width="1.33333" stroke-linecap="round" stroke-linejoin="round"/>
<path d="M13.3333 8H9.99992C9.63173 8 9.33325 8.29848 9.33325 8.66667V13.3333C9.33325 13.7015 9.63173 14 9.99992 14H13.3333C13.7014 14 13.9999 13.7015 13.9999 13.3333V8.66667C13.9999 8.29848 13.7014 8 13.3333 8Z" stroke="#E2E8F0" stroke-opacity="0.8" stroke-width="1.33333" stroke-linecap="round" stroke-linejoin="round"/>
<path d="M6 10.6666H2.66667C2.29848 10.6666 2 10.9651 2 11.3333V13.3333C2 13.7015 2.29848 14 2.66667 14H6C6.36819 14 6.66667 13.7015 6.66667 13.3333V11.3333C6.66667 10.9651 6.36819 10.6666 6 10.6666Z" stroke="#E2E8F0" stroke-opacity="0.8" stroke-width="1.33333" stroke-linecap="round" stroke-linejoin="round"/>
</svg>
