<svg width="20" height="20" viewBox="0 0 20 20" fill="none" xmlns="http://www.w3.org/2000/svg">
<path d="M8.33325 1.66663V3.33329" stroke="white" stroke-width="1.66667" stroke-linecap="round" stroke-linejoin="round"/>
<path d="M11.6667 1.66663V3.33329" stroke="white" stroke-width="1.66667" stroke-linecap="round" stroke-linejoin="round"/>
<path d="M13.3333 6.66663C13.5543 6.66663 13.7663 6.75442 13.9226 6.9107C14.0789 7.06698 14.1667 7.27895 14.1667 7.49996V14.1666C14.1667 15.0507 13.8155 15.8985 13.1904 16.5236C12.5652 17.1488 11.7174 17.5 10.8333 17.5H5.83333C4.94928 17.5 4.10143 17.1488 3.47631 16.5236C2.85119 15.8985 2.5 15.0507 2.5 14.1666V7.49996C2.5 7.27895 2.5878 7.06698 2.74408 6.9107C2.90036 6.75442 3.11232 6.66663 3.33333 6.66663H15C15.8841 6.66663 16.7319 7.01782 17.357 7.64294C17.9821 8.26806 18.3333 9.1159 18.3333 9.99996C18.3333 10.884 17.9821 11.7319 17.357 12.357C16.7319 12.9821 15.8841 13.3333 15 13.3333H14.1667" stroke="white" stroke-width="1.66667" stroke-linecap="round" stroke-linejoin="round"/>
<path d="M5 1.66663V3.33329" stroke="white" stroke-width="1.66667" stroke-linecap="round" stroke-linejoin="round"/>
</svg>
