<svg width="16" height="16" viewBox="0 0 16 16" fill="none" xmlns="http://www.w3.org/2000/svg">
<g clip-path="url(#clip0_1_1903)">
<path d="M1.33325 4.66671L4.27325 1.72671C4.39729 1.60193 4.5448 1.50293 4.70727 1.43543C4.86975 1.36792 5.04398 1.33324 5.21992 1.33337H10.7799C10.9559 1.33324 11.1301 1.36792 11.2926 1.43543C11.455 1.50293 11.6025 1.60193 11.7266 1.72671L14.6666 4.66671" stroke="#E2E8F0" stroke-opacity="0.8" stroke-width="1.33333" stroke-linecap="round" stroke-linejoin="round"/>
<path d="M2.66675 8V13.3333C2.66675 13.687 2.80722 14.0261 3.05727 14.2761C3.30732 14.5262 3.64646 14.6667 4.00008 14.6667H12.0001C12.3537 14.6667 12.6928 14.5262 12.9429 14.2761C13.1929 14.0261 13.3334 13.687 13.3334 13.3333V8" stroke="#E2E8F0" stroke-opacity="0.8" stroke-width="1.33333" stroke-linecap="round" stroke-linejoin="round"/>
<path d="M10 14.6666V12C10 11.6463 9.85952 11.3072 9.60948 11.0572C9.35943 10.8071 9.02029 10.6666 8.66667 10.6666H7.33333C6.97971 10.6666 6.64057 10.8071 6.39052 11.0572C6.14048 11.3072 6 11.6463 6 12V14.6666" stroke="#E2E8F0" stroke-opacity="0.8" stroke-width="1.33333" stroke-linecap="round" stroke-linejoin="round"/>
<path d="M1.33325 4.66663H14.6666" stroke="#E2E8F0" stroke-opacity="0.8" stroke-width="1.33333" stroke-linecap="round" stroke-linejoin="round"/>
<path d="M14.6666 4.66663V6.66663C14.6666 7.02025 14.5261 7.35939 14.2761 7.60943C14.026 7.85948 13.6869 7.99996 13.3333 7.99996C12.9437 7.97852 12.5717 7.83112 12.2733 7.57996C12.1937 7.52248 12.0981 7.49153 11.9999 7.49153C11.9018 7.49153 11.8061 7.52248 11.7266 7.57996C11.4281 7.83112 11.0561 7.97852 10.6666 7.99996C10.2771 7.97852 9.90507 7.83112 9.60659 7.57996C9.52704 7.52248 9.43139 7.49153 9.33325 7.49153C9.23511 7.49153 9.13947 7.52248 9.05992 7.57996C8.76143 7.83112 8.38943 7.97852 7.99992 7.99996C7.61041 7.97852 7.23841 7.83112 6.93992 7.57996C6.86037 7.52248 6.76473 7.49153 6.66659 7.49153C6.56844 7.49153 6.4728 7.52248 6.39325 7.57996C6.09477 7.83112 5.72276 7.97852 5.33325 7.99996C4.94374 7.97852 4.57174 7.83112 4.27325 7.57996C4.19371 7.52248 4.09806 7.49153 3.99992 7.49153C3.90178 7.49153 3.80613 7.52248 3.72659 7.57996C3.4281 7.83112 3.0561 7.97852 2.66659 7.99996C2.31296 7.99996 1.97382 7.85948 1.72378 7.60943C1.47373 7.35939 1.33325 7.02025 1.33325 6.66663V4.66663" stroke="#E2E8F0" stroke-opacity="0.8" stroke-width="1.33333" stroke-linecap="round" stroke-linejoin="round"/>
</g>
<defs>
<clipPath id="clip0_1_1903">
<rect width="16" height="16" fill="white"/>
</clipPath>
</defs>
</svg>
